<?xml version="1.0" encoding="utf-8"?>
<!-- Generator: Adobe Illustrator 25.1.0, SVG Export Plug-In . SVG Version: 6.00 Build 0)  -->
<svg version="1.1" id="Layer_1" xmlns="http://www.w3.org/2000/svg" xmlns:xlink="http://www.w3.org/1999/xlink" x="0px" y="0px"
	 viewBox="0 0 60 60" style="enable-background:new 0 0 60 60;" xml:space="preserve">
<style type="text/css">
	.st0{display:none;}
	.st1{display:inline;}
</style>
<g class="st0">
	<circle class="st1" cx="9.2" cy="-11.8" r="6.2"/>
	<circle class="st1" cx="-8.1" cy="11.3" r="6.2"/>
	<rect x="-2.1" y="13.6" transform="matrix(0.7071 -0.7071 0.7071 0.7071 -11.5313 5.6394)" class="st1" width="6.2" height="6.2"/>
	<rect x="-6.5" y="18" transform="matrix(0.7071 -0.7071 0.7071 0.7071 -15.9277 3.8138)" class="st1" width="6.2" height="6.2"/>
	
		<rect x="-10.9" y="22.4" transform="matrix(0.7071 -0.7071 0.7071 0.7071 -20.3232 1.9968)" class="st1" width="6.2" height="6.2"/>
	<rect x="-2.1" y="22.4" transform="matrix(0.7072 -0.707 0.707 0.7072 -17.7453 8.2091)" class="st1" width="6.2" height="6.2"/>
	<rect x="-6.5" y="26.8" transform="matrix(0.7071 -0.7071 0.7071 0.7071 -22.1431 6.3888)" class="st1" width="6.2" height="6.2"/>
	<rect x="2.2" y="26.7" transform="matrix(0.7071 -0.7071 0.7071 0.7071 -19.5184 12.488)" class="st1" width="6.2" height="6.2"/>
	<rect x="6.6" y="22.2" transform="matrix(0.7071 -0.7071 0.7071 0.7071 -15.079 14.2909)" class="st1" width="6.2" height="6.2"/>
	<rect x="11" y="26.6" transform="matrix(0.7072 -0.707 0.707 0.7072 -16.8978 18.6819)" class="st1" width="6.2" height="6.2"/>
	<rect x="15.4" y="31" transform="matrix(0.7071 -0.7071 0.7071 0.7071 -18.7198 23.083)" class="st1" width="6.2" height="6.2"/>
	<rect x="19.8" y="35.4" transform="matrix(0.7072 -0.707 0.707 0.7072 -20.5389 27.4685)" class="st1" width="6.2" height="6.2"/>
	
		<rect x="-2.2" y="31.1" transform="matrix(0.7071 -0.7071 0.7071 0.7071 -23.9138 10.6678)" class="st1" width="6.2" height="6.2"/>
	<rect x="2.2" y="35.5" transform="matrix(0.7071 -0.7071 0.7071 0.7071 -25.7211 15.0277)" class="st1" width="6.2" height="6.2"/>
	<rect x="6.5" y="39.8" transform="matrix(0.7071 -0.7071 0.7071 0.7071 -27.5314 19.3877)" class="st1" width="6.2" height="6.2"/>
	<rect x="2.2" y="44.2" transform="matrix(0.7073 -0.7069 0.7069 0.7073 -31.8815 17.5737)" class="st1" width="6.2" height="6.2"/>
	
		<rect x="-15.3" y="26.8" transform="matrix(0.7073 -0.7069 0.7069 0.7073 -24.7106 0.1703)" class="st1" width="6.2" height="6.2"/>
	<rect x="2.3" y="9.2" transform="matrix(0.7071 -0.7071 0.7071 0.7071 -7.1345 7.4556)" class="st1" width="6.2" height="6.2"/>
	<rect x="6.7" y="4.9" transform="matrix(0.7071 -0.7071 0.7071 0.7071 -2.7688 9.2636)" class="st1" width="6.2" height="6.2"/>
</g>
<g>
	<circle cx="8" cy="20.5" r="4.2"/>
	<path d="M31.9,15.9l-3.4,3.4c-0.1,0.1-0.2,0.2-0.2,0.3c-0.2,0.2-0.3,0.5-0.3,0.7c0,0.1,0,0.3,0,0.4c0,0.1,0,0.3,0,0.4l0.3,0.8
		c0.1,0.1,0.1,0.2,0.2,0.3h0c0.2,0.2,0.5,0.4,0.8,0.5c0.1,0,0.2,0,0.2,0.1c0,0,0.1,0,0.1,0c0.1,0,0.2,0,0.2,0c0,0,0,0,0.1,0h0.1h8.2
		c0.6,0,1.1-0.2,1.5-0.6c0.4-0.4,0.6-0.9,0.6-1.5c0-1.1-0.9-2.1-2.1-2.1H35l6.2-6.2l2.2,2.2l0,0c0,0.1,0.1,0.1,0.1,0.2l7.4,7.4
		c0.4,0.4,0.9,0.6,1.5,0.6s1.1-0.2,1.5-0.6c0.8-0.8,0.8-2.1,0-2.9l-5.2-5.2c0,0-0.1-0.1-0.1-0.2l-7.4-7.4C40.8,6.2,40.2,6,39.7,6
		c-0.1,0-0.1,0-0.2,0h-8.1v0c-0.5,0-1,0.2-1.3,0.6l-4.2,4.2l0,0c0,0-0.1,0.1-0.1,0.1l-7.4,7.4c0,0-0.1,0.1-0.1,0.2l-6.8,6.8
		c0,0-0.1,0.1-0.1,0.2l-5.1,5.1c-0.1,0.1-0.1,0.1-0.2,0.2c0,0,0,0,0,0c0,0,0,0,0,0l-2.9,2.9c-0.2,0.2-0.3,0.4-0.5,0.7
		c0,0.1,0,0.1-0.1,0.2c-0.1,0.2-0.1,0.4-0.1,0.6c0,0.1,0,0.1,0,0.2v4c0,0,0,0,0,0V42c0,0,0,0,0,0c0,1.1,0.9,2.1,2.1,2.1
		c1.1,0,2.1-0.9,2.1-2.1v-6L8,34.7v13.2l-6.7,6.7c-0.4,0.4-0.6,0.9-0.6,1.5c0,0.5,0.2,1.1,0.6,1.5c0.8,0.8,2.1,0.8,2.9,0l7.4-7.4
		c0.1-0.1,0.1-0.1,0.2-0.2c0,0,0.1-0.1,0.1-0.1c0.1-0.1,0.1-0.2,0.2-0.3c0,0,0-0.1,0.1-0.1c0.1-0.2,0.1-0.4,0.1-0.7V42h8.3v8.3
		c0,0.6,0.2,1.1,0.6,1.5c0.4,0.4,0.9,0.6,1.5,0.6c1.1,0,2.1-0.9,2.1-2.1V39.9c0-1.1-0.9-2.1-2.1-2.1h-6.2V26.4l1.7-1.7
		c0,0,0.1-0.1,0.1-0.1l3.7-3.7c0,0,0.1-0.1,0.1-0.2l2.2-2.2c0.1,0,0.1-0.1,0.2-0.1l6.1-6.1h5.2L31.9,15.9
		C31.9,15.9,31.9,15.9,31.9,15.9z"/>
	<rect x="27.9" y="26.7" width="31.5" height="31.5"/>
	<circle cx="22.5" cy="6" r="4.2"/>
</g>
</svg>
