<?xml version="1.0" encoding="utf-8"?>
<!-- Generator: Adobe Illustrator 25.1.0, SVG Export Plug-In . SVG Version: 6.00 Build 0)  -->
<svg version="1.1" id="Layer_1" xmlns="http://www.w3.org/2000/svg" xmlns:xlink="http://www.w3.org/1999/xlink" x="0px" y="0px"
	 viewBox="0 0 54.6 40" style="enable-background:new 0 0 54.6 40;" xml:space="preserve">
<style type="text/css">
	.st0{fill:#DA1F26;}
	.st1{fill:#911A1D;}
</style>
<circle class="st0" cx="6.8" cy="32.4" r="6.2"/>
<path class="st0" d="M52.1,38.1c-1.7,0.9-3.8,0.3-4.7-1.3c0,0,0,0,0-0.1l-9.7-20.3l-1-1.9l-1.1-2.1l-4.2-8.4l0,0l0.9-1.8
	c0.2-0.4,0.6-0.6,1-0.7h4c0.4,0,0.8,0.3,1,0.6l15.3,31.3C54.4,35.1,53.8,37.2,52.1,38.1z"/>
<path class="st1" d="M36.7,14.5c-0.3-0.6-1.1-0.9-1.7-0.5c-0.2,0.1-0.4,0.3-0.5,0.5l-1,1.9L27.3,29c-1.1,1.9-3.6,2.6-5.5,1.5
	c-0.3-0.2-0.6-0.4-0.8-0.6l-9-9c-1.4-1.3-1.4-3.6-0.1-4.9c0,0,0,0,0.1-0.1c1.4-1.4,3.6-1.4,4.9,0l4.9,4.9c0.4,0.4,1.1,0.4,1.5,0
	c0.1-0.1,0.1-0.2,0.2-0.2l7.9-16.5l4.3,8.4L36.7,14.5z"/>
</svg>
